<svg xmlns="http://www.w3.org/2000/svg" viewBox="0 0 411.96 90.47"><defs><style>.cls-1{fill:#e1daea;}</style></defs><g id="Capa_2" data-name="Capa 2"><g id="Capa_1-2" data-name="Capa 1"><path class="cls-1" d="M3,65.57a17.8,17.8,0,0,0,5.78,5.49A32,32,0,0,0,17,73.92q4.83,1.15,14.88,1.16a112.06,112.06,0,0,0,19.92-1.81l2.76-15.14a131.1,131.1,0,0,1-16.84,1.21c-5.1,0-8.65-.42-10.67-1.26a10.34,10.34,0,0,1-4.47-2.76,7.81,7.81,0,0,1-1.76-4.23,13.14,13.14,0,0,1-.2-4.17c.06-.37.17-1,.3-1.91s.23-1.59.3-2.06l2.57-14.39a23.86,23.86,0,0,1,.75-3.62,31.49,31.49,0,0,1,2.67-5.23q2.25-3.91,15.53-3.92h2.07l-1.56,8.15h17.3l4-22.08A122.22,122.22,0,0,0,41.86,0Q23.1,0,17.12,5.63a64,64,0,0,0-8.9,9.76Q5.29,19.52,3.79,29.07l-3,17a41.65,41.65,0,0,0-.7,10.41A16.38,16.38,0,0,0,3,65.57Z"/><path class="cls-1" d="M61.12,60.29,58.76,74.17H93l2.37-13.88H88.83l2.36-13.42h.71l12.77,27.3h20.92L128,60.29h-7.44l-7.9-14.73q8.2-1.91,12.53-6.08t6-13.38q1.66-9.21.4-14.38a12.53,12.53,0,0,0-5.83-8Q121.12,1,109.09,1H71.73L69.17,14.83H77l-8,45.46ZM96.52,16.7h9.71c2.21,0,3.74.55,4.57,1.65s1,3.42.36,6.84-1.51,5.65-2.72,6.59a7.79,7.79,0,0,1-5.13,1.51H93.66Z"/><polygon class="cls-1" points="165.52 74.17 167.88 60.3 160.54 60.3 166.92 33.09 173.21 65.73 187.94 65.73 206.2 32.48 202.88 60.3 195.59 60.3 193.22 74.17 228.53 74.17 230.89 60.3 222.84 60.3 227.42 14.83 235.62 14.83 238.23 0.96 207.51 0.96 184.98 41.13 177.03 0.96 146.16 0.96 143.54 14.83 151.79 14.83 140.17 60.3 132.13 60.3 129.76 74.17 165.52 74.17"/><path class="cls-1" d="M273.05,31.29q.68-3.69,3.24-4.22a59.67,59.67,0,0,1,9.36-1.1L287,18.54a57.14,57.14,0,0,0-11.46,1,22.63,22.63,0,0,0-7.7,2.95q-3.13,2-4.26,8.67l-.83,5.09h-5.88l-1.32,7.21h5.88l-6.11,34.28q-.68,3.61-3.24,4.26a63.33,63.33,0,0,1-6.77,1.08H2.23L0,90.47H243.93a57.26,57.26,0,0,0,9.17-1.06,22.13,22.13,0,0,0,7.43-2.87q3.12-2,4.18-8.67l6.19-34.43h10l1.32-7.21H272.18Z"/><path class="cls-1" d="M305.86,33.93a29.52,29.52,0,0,0-8.79,1.17,19.42,19.42,0,0,0-5.88,2.79A12.82,12.82,0,0,0,287.68,42a20.29,20.29,0,0,0-1.88,4.15,30.92,30.92,0,0,0-.87,3.92l-1.55,8.56q-1.69,8.79.91,11.51a13.68,13.68,0,0,0,5.35,3.69,22.88,22.88,0,0,0,7.62,1,25,25,0,0,0,10.45-2.6l.38,1.92H321l1.16-7.09h-5.43l5.51-30.85A57.21,57.21,0,0,0,305.86,33.93Zm1.7,32.21a28.88,28.88,0,0,1-8.41,1.24c-2.87,0-4.75-.6-5.66-1.81s-1.13-3.38-.68-6.52l1.62-9q.94-4.78,2.95-6.71t6.37-1.92a48.84,48.84,0,0,1,8,.6Z"/><polygon class="cls-1" points="301.52 30.01 309.03 30.01 322.31 17.86 311.71 17.86 301.52 30.01"/><path class="cls-1" d="M361.53,47.21l2.07-11.88a61.15,61.15,0,0,0-13.05-1.4,30.69,30.69,0,0,0-12.67,2.79q-6.15,2.84-7.62,12.9l-1.69,9.58a37.35,37.35,0,0,0-.53,3.7,13.66,13.66,0,0,0,.45,4,7.77,7.77,0,0,0,2,4q1.47,1.54,6.86,3.47t19.46-.9l1.4-7.59A54.65,54.65,0,0,1,347,67.08q-5.58,0-7.66-2t-1.24-6.79l1.36-7.88c.65-3.24,1.9-5.51,3.73-6.79s4.41-1.92,7.73-1.92a15.64,15.64,0,0,1,3.25.3l-.95,5.17Z"/><path class="cls-1" d="M386.91,19.64c-.65-.73-2-1.1-4-1.1a6.78,6.78,0,0,0-4.33,1.1q-1.36,1.09-1.85,4.26c-.35,2.14-.18,3.52.53,4.15s2,1,3.84,1a7.29,7.29,0,0,0,4.27-1q1.47-1,2-4.15T386.91,19.64Z"/><polygon class="cls-1" points="369.41 34.61 368.17 41.74 374.13 41.74 369.56 67.08 364.17 67.08 363 74.17 383.25 74.17 384.38 67.08 378.99 67.08 384.8 34.61 369.41 34.61"/><polygon class="cls-1" points="411.95 19.26 396.57 19.26 395.25 26.35 401.21 26.35 393.93 67.08 388.53 67.08 387.36 74.17 407.62 74.17 408.79 67.08 403.36 67.08 411.95 19.26"/></g></g></svg>