<svg xmlns="http://www.w3.org/2000/svg" viewBox="0 0 414.61 87.44"><defs><style>.cls-1{fill:#e1daea;}</style></defs><g id="Capa_2" data-name="Capa 2"><g id="Capa_1-2" data-name="Capa 1"><path class="cls-1" d="M68.5,70.54c-8.37,10.62-20.43,16.9-32.62,16.9C14.12,87.44-1.89,67.83.18,43.72S21.64,0,43.41,0A33.72,33.72,0,0,1,61.14,4.9,36,36,0,0,1,72.75,16.33a1.11,1.11,0,0,1-.31,1.44L58.49,28.12A.89.89,0,0,1,57.21,28,18.65,18.65,0,0,0,41.7,19.84c-11.91,0-22.51,10.71-23.64,23.88S25.69,67.6,37.59,67.6A23,23,0,0,0,55,58.91a.91.91,0,0,1,1.29-.17L68.42,69.07A1.08,1.08,0,0,1,68.5,70.54Z"/><path class="cls-1" d="M127.24,83.84a1.09,1.09,0,0,1-1,1.41H107.05a.84.84,0,0,1-.8-.6l-7.9-24.92a.83.83,0,0,0-.8-.6H94.47a1.07,1.07,0,0,0-1,1L91.4,84a1.07,1.07,0,0,1-1,1H72.69a.87.87,0,0,1-.84-1l7-81.13a1.07,1.07,0,0,1,1-1h23.7c13.71,0,18.81,2.33,22.6,6.08,5.18,5.17,7.72,13.22,7,22.11-.74,8.6-4.69,17.39-9.83,21.87A34.09,34.09,0,0,1,119,55.11a1.1,1.1,0,0,0-.48,1.26ZM114.32,30.38c.35-4.07-.91-6.74-3.86-8.18C108,21,104.87,21,102.8,21h-5a1.07,1.07,0,0,0-1,1L95.27,39a.88.88,0,0,0,.85,1h5.75a17.54,17.54,0,0,0,7.36-1.2C113,37,114.07,33.24,114.32,30.38Z"/><path class="cls-1" d="M216.87,85.12H199.82a.86.86,0,0,1-.84-.91l0-42.14a.91.91,0,0,0-1.79-.21L181,84.42a1,1,0,0,1-.95.7H168.37a.84.84,0,0,1-.82-.7l-8.93-42.56c-.22-1-1.64-.88-1.83.21l-7.21,42.14a1.07,1.07,0,0,1-1,.91h-17a.88.88,0,0,1-.82-1.13L147.32,2.75a1.06,1.06,0,0,1,1-.87H168a.83.83,0,0,1,.82.7L177,43.78a.91.91,0,0,0,1.78,0L193.64,2.59a1,1,0,0,1,1-.71h19.82a.86.86,0,0,1,.84.87L217.89,84A1.08,1.08,0,0,1,216.87,85.12Z"/><path class="cls-1" d="M263.26,31.56c-1.24,1.25-1.5,3.57-1.64,5.31a.7.7,0,0,0,.68.81h4.9a.7.7,0,0,1,.68.81l-1,12a.87.87,0,0,1-.82.81h-4.9a.88.88,0,0,0-.82.82l-2.75,31.72a.87.87,0,0,1-.82.81H243.57a.71.71,0,0,1-.68-.82l.26-2.8,2.48-28.91a.71.71,0,0,0-.68-.82h-4.89a.71.71,0,0,1-.69-.81l1-12a.87.87,0,0,1,.82-.81h4.89a.88.88,0,0,0,.83-.82l.51-6c1-11.34,9.68-13,13.38-13.26a13.26,13.26,0,0,1,1.72,0H270a.72.72,0,0,1,.67.9l-2,11.22a.86.86,0,0,1-.81.74h-1.54A4.15,4.15,0,0,0,263.26,31.56Z"/><path class="cls-1" d="M324.3,34.45l-4.24,49.39a.87.87,0,0,1-.83.81H306.06a.7.7,0,0,1-.68-.81l.06-.76a.35.35,0,0,0-.53-.35,25.37,25.37,0,0,1-12.73,3.53c-13.8,0-24-12-22.73-26.72S283,32.83,296.78,32.83a22.21,22.21,0,0,1,12.12,3.53.41.41,0,0,0,.59-.36l.14-1.55a.87.87,0,0,1,.82-.82h13.17A.71.71,0,0,1,324.3,34.45ZM307.47,59.54c.58-6.75-3.35-12.25-9.68-12.25s-12,5.5-12.53,12.25,4.1,12.26,10.43,12.26S306.89,66.3,307.47,59.54Z"/><path class="cls-1" d="M370.45,73.58c-.43.63-1,1.5-1.37,1.93l0,0c-.52.66-1.07,1.3-1.64,1.91l0,0c-.23.25-.61.64-.85.87a1.59,1.59,0,0,1-.13.13c-.24.24-.49.47-.74.69s-.29.26-.44.39l-.31.27A27,27,0,0,1,351.55,86l-.48.07c-.2,0-.39.05-.59.06s-.62.06-.93.08l-.33,0-1.12,0c-13.8,0-24-12-22.73-26.72s13.52-26.71,27.32-26.71c.38,0,.75,0,1.12,0l.33,0c.3,0,.61,0,.91.08l.58.07.47.06a22.16,22.16,0,0,1,12.3,6.17l.26.27.38.39c.21.22.42.45.62.69a1.71,1.71,0,0,1,.11.14l.63.77.1.13a23,23,0,0,1,1.31,1.91l0,0c.41.68.79,1.37,1.14,2.09h0a.69.69,0,0,1-.28.88l-7.05,4.18-4.06,2.41a.68.68,0,0,1-1-.25c-1.88-3.6-4.76-5.6-8.4-5.6a12.3,12.3,0,0,0-9.18,4.4,13.16,13.16,0,0,0-3.54,7.85,11.2,11.2,0,0,0,2.19,7.86,10.17,10.17,0,0,0,8.43,4.4c3.63,0,6.85-2,9.36-5.6a.74.74,0,0,1,1-.25l9.82,6.48A.83.83,0,0,1,370.45,73.58Z"/><path class="cls-1" d="M392.32,34.48l-4.25,49.38a.88.88,0,0,1-.82.82H374.07a.72.72,0,0,1-.68-.82l4.25-49.38a.88.88,0,0,1,.82-.82h13.18A.72.72,0,0,1,392.32,34.48Zm1.38-16.07-.89,10.41a.88.88,0,0,1-.83.82H378.81a.71.71,0,0,1-.68-.82L379,18.41a.87.87,0,0,1,.83-.81H393A.71.71,0,0,1,393.7,18.41Z"/><path class="cls-1" d="M414.61,18.41,409,83.87a.88.88,0,0,1-.83.81H394.23a.71.71,0,0,1-.68-.81l5.63-65.46a.86.86,0,0,1,.82-.81h13.92A.71.71,0,0,1,414.61,18.41Z"/><path class="cls-1" d="M342.11,18.83l-6-6.54a.92.92,0,0,0-1.36.06L324.56,25a1.09,1.09,0,0,0-.07,1.45l4.34,4.41a.92.92,0,0,0,1.36-.07L342,20.29A1.1,1.1,0,0,0,342.11,18.83Z"/></g></g></svg>