<svg xmlns="http://www.w3.org/2000/svg" viewBox="0 0 269.8 269.8"><defs><style>.cls-1{fill:#1b1b37;}.cls-2{fill:#e1daea;}</style></defs><g id="Capa_2" data-name="Capa 2"><g id="Capa_1-2" data-name="Capa 1"><rect class="cls-1" width="269.8" height="269.8" rx="12"/><path class="cls-2" d="M23,167.19a17.9,17.9,0,0,0,5.79,5.48,32.46,32.46,0,0,0,8.14,2.87q4.83,1.16,14.89,1.15a111.87,111.87,0,0,0,19.91-1.81l2.77-15.14A131.12,131.12,0,0,1,57.64,161c-5.09,0-8.65-.42-10.66-1.26a10.28,10.28,0,0,1-4.47-2.76,7.78,7.78,0,0,1-1.76-4.23,13.14,13.14,0,0,1-.2-4.17c.06-.37.16-1,.3-1.91s.23-1.59.3-2.06l2.56-14.38a24.83,24.83,0,0,1,.76-3.63,31.55,31.55,0,0,1,2.66-5.23q2.26-3.91,15.54-3.92h2.06l-1.56,8.15h17.3l4-22.08a122.38,122.38,0,0,0-22.68-1.86q-18.76,0-24.74,5.63A65.21,65.21,0,0,0,28.17,117q-2.91,4.13-4.42,13.68l-3,17a41.53,41.53,0,0,0-.7,10.4A16.4,16.4,0,0,0,23,167.19Z"/><path class="cls-2" d="M81.08,161.91l-2.37,13.88h34.2l2.36-13.88h-6.48l2.36-13.43h.7l12.78,27.31h20.92l2.36-13.88h-7.44l-7.9-14.74q8.2-1.9,12.52-6.08t6-13.38q1.65-9.19.4-14.38a12.56,12.56,0,0,0-5.83-8q-4.58-2.76-16.6-2.76H91.69l-2.57,13.88h7.8l-8,45.46Zm35.4-43.6h9.7c2.22,0,3.74.55,4.58,1.66s1,3.42.35,6.84-1.51,5.65-2.71,6.58a7.79,7.79,0,0,1-5.13,1.51h-9.66Z"/><polygon class="cls-2" points="185.47 175.79 187.84 161.91 180.5 161.91 186.88 134.7 193.17 167.34 207.9 167.34 226.16 134.1 222.84 161.91 215.55 161.91 213.18 175.79 248.48 175.79 250.85 161.91 242.8 161.91 247.38 116.45 255.57 116.45 258.19 102.57 227.46 102.57 204.94 142.75 196.99 102.57 166.11 102.57 163.5 116.45 171.75 116.45 160.13 161.91 152.08 161.91 149.72 175.79 185.47 175.79"/></g></g></svg>